<?xml version="1.0" encoding="UTF-8"?>
<svg id="Layer_2" data-name="Layer 2" xmlns="http://www.w3.org/2000/svg" viewBox="0 0 4753.88 839.01">
  <defs>
    <style>
      .cls-1 {
        opacity: .2;
      }

      .cls-2 {
        opacity: .8;
      }

      .cls-3 {
        opacity: .4;
      }

      .cls-4 {
        opacity: .3;
      }

      .cls-5, .cls-6 {
        fill: #fff;
        stroke-width: 0px;
      }

      .cls-6 {
        opacity: .1;
      }
    </style>
  </defs>
  <g id="Vrstva_1" data-name="Vrstva 1">
    <g>
      <g class="cls-3">
        <path class="cls-5" d="M3426.61,209.43c0,2.49-2.02,4.51-4.52,4.51s-4.51-2.02-4.51-4.51,2.03-4.51,4.51-4.51,4.52,2.01,4.52,4.51Z"/>
        <path class="cls-6" d="M3439.65,209.43c0,9.69-7.86,17.54-17.56,17.54s-17.54-7.85-17.54-17.54,7.87-17.54,17.54-17.54,17.56,7.84,17.56,17.54Z"/>
      </g>
      <g class="cls-3">
        <path class="cls-5" d="M3939.35,90.63c0,2.49-2.02,4.52-4.51,4.52s-4.52-2.02-4.52-4.52,2.04-4.52,4.52-4.52,4.51,2.03,4.51,4.52Z"/>
        <path class="cls-6" d="M3952.39,90.63c0,9.69-7.86,17.54-17.55,17.54s-17.54-7.86-17.54-17.54,7.86-17.55,17.54-17.55,17.55,7.85,17.55,17.55Z"/>
      </g>
      <g class="cls-3">
        <path class="cls-5" d="M1524.01,137.3c0,4.06-3.29,7.36-7.35,7.36s-7.36-3.29-7.36-7.36,3.29-7.35,7.36-7.35,7.35,3.29,7.35,7.35Z"/>
        <path class="cls-6" d="M1545.22,137.3c0,15.77-12.78,28.57-28.56,28.57s-28.57-12.79-28.57-28.57,12.78-28.57,28.57-28.57,28.56,12.79,28.56,28.57Z"/>
      </g>
      <g>
        <path class="cls-5" d="M1513.83,521.08c0,4.07-3.3,7.36-7.36,7.36s-7.35-3.29-7.35-7.36,3.29-7.35,7.35-7.35,7.36,3.3,7.36,7.35Z"/>
        <path class="cls-6" d="M1535.04,521.08c0,15.78-12.8,28.57-28.57,28.57s-28.56-12.78-28.56-28.57,12.79-28.55,28.56-28.55,28.57,12.79,28.57,28.55Z"/>
      </g>
      <g>
        <path class="cls-5" d="M1724.35,28.56c0,4.07-3.29,7.36-7.35,7.36s-7.35-3.29-7.35-7.36,3.29-7.35,7.35-7.35,7.35,3.3,7.35,7.35Z"/>
        <path class="cls-6" d="M1745.56,28.56c0,15.77-12.79,28.57-28.56,28.57s-28.57-12.8-28.57-28.57,12.79-28.56,28.57-28.56,28.56,12.78,28.56,28.56Z"/>
      </g>
      <g>
        <path class="cls-5" d="M4675.55,132.64c0,4.07-3.3,7.35-7.36,7.35s-7.35-3.29-7.35-7.35,3.29-7.35,7.35-7.35,7.36,3.29,7.36,7.35Z"/>
        <path class="cls-6" d="M4696.75,132.64c0,15.77-12.79,28.56-28.56,28.56s-28.57-12.79-28.57-28.56,12.79-28.56,28.57-28.56,28.56,12.78,28.56,28.56Z"/>
      </g>
      <g>
        <path class="cls-5" d="M2379.43,282.01c0,4.06-3.3,7.35-7.36,7.35s-7.36-3.29-7.36-7.35,3.29-7.35,7.36-7.35,7.36,3.3,7.36,7.35Z"/>
        <path class="cls-6" d="M2400.63,282.01c0,15.77-12.79,28.57-28.56,28.57s-28.56-12.8-28.56-28.57,12.78-28.57,28.56-28.57,28.56,12.78,28.56,28.57Z"/>
      </g>
      <g>
        <path class="cls-5" d="M3959.74,492.52c0,4.07-3.3,7.36-7.35,7.36s-7.36-3.29-7.36-7.36,3.29-7.34,7.36-7.34,7.35,3.29,7.35,7.34Z"/>
        <path class="cls-6" d="M3980.95,492.52c0,15.78-12.79,28.57-28.56,28.57s-28.57-12.79-28.57-28.57,12.78-28.56,28.57-28.56,28.56,12.78,28.56,28.56Z"/>
      </g>
      <g>
        <path class="cls-5" d="M3486.57,61.71c0,1.92-1.56,3.48-3.47,3.48s-3.49-1.56-3.49-3.48,1.55-3.47,3.49-3.47,3.47,1.55,3.47,3.47Z"/>
        <path class="cls-6" d="M3496.6,61.71c0,7.46-6.05,13.52-13.5,13.52s-13.51-6.05-13.51-13.52,6.05-13.5,13.51-13.5,13.5,6.05,13.5,13.5Z"/>
      </g>
      <g>
        <path class="cls-5" d="M150.92,576.8c0,1.93-1.56,3.49-3.47,3.49s-3.48-1.56-3.48-3.49,1.56-3.48,3.48-3.48,3.47,1.56,3.47,3.48Z"/>
        <path class="cls-6" d="M160.96,576.8c0,7.46-6.06,13.51-13.51,13.51s-13.51-6.05-13.51-13.51,6.05-13.51,13.51-13.51,13.51,6.04,13.51,13.51Z"/>
      </g>
      <g class="cls-3">
        <path class="cls-5" d="M3124.24,150.74c0,4.06-3.29,7.35-7.35,7.35s-7.35-3.29-7.35-7.35,3.3-7.36,7.35-7.36,7.35,3.29,7.35,7.36Z"/>
        <path class="cls-6" d="M3145.45,150.74c0,15.78-12.77,28.56-28.56,28.56s-28.55-12.78-28.55-28.56,12.78-28.57,28.55-28.57,28.56,12.79,28.56,28.57Z"/>
      </g>
      <g class="cls-3">
        <path class="cls-5" d="M3601.4,173.5c0,4.07-3.29,7.35-7.36,7.35s-7.36-3.29-7.36-7.35,3.29-7.34,7.36-7.34,7.36,3.29,7.36,7.34Z"/>
        <path class="cls-6" d="M3622.62,173.5c0,15.78-12.79,28.57-28.57,28.57s-28.56-12.78-28.56-28.57,12.79-28.56,28.56-28.56,28.57,12.79,28.57,28.56Z"/>
      </g>
      <g class="cls-3">
        <path class="cls-5" d="M4372.92,126.83c0,4.06-3.28,7.37-7.36,7.37s-7.35-3.3-7.35-7.37,3.29-7.35,7.35-7.35,7.36,3.29,7.36,7.35Z"/>
        <path class="cls-6" d="M4394.14,126.83c0,15.78-12.79,28.57-28.58,28.57s-28.56-12.79-28.56-28.57,12.79-28.56,28.56-28.56,28.58,12.79,28.58,28.56Z"/>
      </g>
      <g class="cls-3">
        <path class="cls-5" d="M4594.08,357.34c0,4.06-3.3,7.35-7.34,7.35s-7.36-3.29-7.36-7.35,3.3-7.36,7.36-7.36,7.34,3.3,7.34,7.36Z"/>
        <path class="cls-6" d="M4615.3,357.34c0,15.77-12.78,28.56-28.55,28.56s-28.57-12.78-28.57-28.56,12.79-28.57,28.57-28.57,28.55,12.8,28.55,28.57Z"/>
      </g>
      <g class="cls-3">
        <path class="cls-5" d="M4271.1,150.74c0,4.06-3.28,7.35-7.35,7.35s-7.36-3.29-7.36-7.35,3.3-7.36,7.36-7.36,7.35,3.29,7.35,7.36Z"/>
        <path class="cls-6" d="M4292.32,150.74c0,15.78-12.79,28.56-28.57,28.56s-28.56-12.78-28.56-28.56,12.8-28.57,28.56-28.57,28.57,12.79,28.57,28.57Z"/>
      </g>
      <g class="cls-1">
        <path class="cls-5" d="M4732.67,605.37c0,4.05-3.29,7.35-7.35,7.35s-7.35-3.29-7.35-7.35,3.29-7.36,7.35-7.36,7.35,3.29,7.35,7.36Z"/>
        <path class="cls-6" d="M4753.88,605.37c0,15.76-12.79,28.55-28.56,28.55s-28.57-12.79-28.57-28.55,12.79-28.57,28.57-28.57,28.56,12.79,28.56,28.57Z"/>
      </g>
      <g class="cls-1">
        <path class="cls-5" d="M2875.12,202.07c0,4.06-3.29,7.36-7.37,7.36s-7.35-3.29-7.35-7.36,3.29-7.36,7.35-7.36,7.37,3.3,7.37,7.36Z"/>
        <path class="cls-6" d="M2896.32,202.07c0,15.78-12.79,28.56-28.58,28.56s-28.56-12.79-28.56-28.56,12.79-28.57,28.56-28.57,28.58,12.8,28.58,28.57Z"/>
      </g>
      <g class="cls-1">
        <path class="cls-5" d="M2205.74,259.2c0,4.06-3.29,7.36-7.36,7.36s-7.36-3.29-7.36-7.36,3.29-7.35,7.36-7.35,7.36,3.29,7.36,7.35Z"/>
        <path class="cls-6" d="M2226.94,259.2c0,15.77-12.78,28.56-28.55,28.56s-28.57-12.78-28.57-28.56,12.79-28.56,28.57-28.56,28.55,12.78,28.55,28.56Z"/>
      </g>
      <g class="cls-3">
        <path class="cls-5" d="M3913.62,328.77c0,4.06-3.29,7.35-7.35,7.35s-7.35-3.29-7.35-7.35,3.29-7.34,7.35-7.34,7.35,3.29,7.35,7.34Z"/>
        <path class="cls-6" d="M3934.84,328.77c0,15.77-12.79,28.57-28.56,28.57s-28.57-12.8-28.57-28.57,12.79-28.55,28.57-28.55,28.56,12.78,28.56,28.55Z"/>
      </g>
      <g class="cls-3">
        <path class="cls-5" d="M1645.09,310.68c0,2.56-2.08,4.65-4.66,4.65s-4.66-2.08-4.66-4.65,2.08-4.67,4.66-4.67,4.66,2.08,4.66,4.67Z"/>
        <path class="cls-6" d="M1658.54,310.68c0,9.99-8.11,18.09-18.11,18.09s-18.1-8.1-18.1-18.09,8.11-18.11,18.1-18.11,18.11,8.1,18.11,18.11Z"/>
      </g>
      <g class="cls-3">
        <path class="cls-5" d="M842.65,820.91c0,2.56-2.09,4.64-4.67,4.64s-4.66-2.08-4.66-4.64,2.08-4.66,4.66-4.66,4.67,2.08,4.67,4.66Z"/>
        <path class="cls-6" d="M856.09,820.91c0,10-8.1,18.09-18.11,18.09s-18.1-8.1-18.1-18.09,8.1-18.11,18.1-18.11,18.11,8.1,18.11,18.11Z"/>
      </g>
      <g class="cls-2">
        <path class="cls-5" d="M3331.72,108.73c0,2.57-2.08,4.66-4.66,4.66s-4.67-2.09-4.67-4.66,2.1-4.66,4.67-4.66,4.66,2.1,4.66,4.66Z"/>
        <path class="cls-6" d="M3345.17,108.73c0,10-8.11,18.1-18.11,18.1s-18.1-8.1-18.1-18.1,8.1-18.1,18.1-18.1,18.11,8.11,18.11,18.1Z"/>
      </g>
      <g class="cls-4">
        <path class="cls-5" d="M2611.31,313.94c0,1.44-1.16,2.62-2.61,2.62s-2.6-1.18-2.6-2.62,1.16-2.62,2.6-2.62,2.61,1.18,2.61,2.62Z"/>
        <path class="cls-6" d="M2618.88,313.94c0,5.62-4.55,10.18-10.18,10.18s-10.18-4.55-10.18-10.18,4.56-10.18,10.18-10.18,10.18,4.56,10.18,10.18Z"/>
      </g>
      <g class="cls-4">
        <path class="cls-5" d="M301.28,78.97c0,1.44-1.17,2.62-2.61,2.62s-2.62-1.18-2.62-2.62,1.17-2.62,2.62-2.62,2.61,1.18,2.61,2.62Z"/>
        <path class="cls-6" d="M308.83,78.97c0,5.62-4.56,10.18-10.17,10.18s-10.18-4.56-10.18-10.18,4.56-10.18,10.18-10.18,10.17,4.56,10.17,10.18Z"/>
      </g>
      <g class="cls-4">
        <path class="cls-5" d="M1031.32,373.14c0,1.44-1.17,2.62-2.62,2.62s-2.62-1.18-2.62-2.62,1.17-2.62,2.62-2.62,2.62,1.18,2.62,2.62Z"/>
        <path class="cls-6" d="M1038.88,373.14c0,5.61-4.55,10.18-10.17,10.18s-10.17-4.56-10.17-10.18,4.56-10.17,10.17-10.17,10.17,4.55,10.17,10.17Z"/>
      </g>
      <g class="cls-4">
        <path class="cls-5" d="M3901.54,165.87c0,1.44-1.17,2.61-2.62,2.61s-2.62-1.17-2.62-2.61,1.17-2.62,2.62-2.62,2.62,1.17,2.62,2.62Z"/>
        <path class="cls-6" d="M3909.1,165.87c0,5.61-4.55,10.18-10.19,10.18s-10.18-4.57-10.18-10.18,4.56-10.18,10.18-10.18,10.19,4.55,10.19,10.18Z"/>
      </g>
      <g class="cls-4">
        <path class="cls-5" d="M4375.55,534.52c0,1.44-1.19,2.62-2.65,2.62s-2.59-1.17-2.59-2.62,1.15-2.62,2.59-2.62,2.65,1.18,2.65,2.62Z"/>
        <path class="cls-6" d="M4383.1,534.52c0,5.63-4.55,10.18-10.19,10.18s-10.16-4.55-10.16-10.18,4.57-10.17,10.16-10.17,10.19,4.54,10.19,10.17Z"/>
      </g>
      <g class="cls-4">
        <path class="cls-5" d="M4596.7,144.94c0,1.44-1.17,2.62-2.61,2.62s-2.62-1.18-2.62-2.62,1.18-2.62,2.62-2.62,2.61,1.18,2.61,2.62Z"/>
        <path class="cls-6" d="M4604.26,144.94c0,5.62-4.57,10.18-10.17,10.18s-10.17-4.56-10.17-10.18,4.54-10.17,10.17-10.17,10.17,4.55,10.17,10.17Z"/>
      </g>
      <g class="cls-4">
        <path class="cls-5" d="M2831.63,429.17c0,1.46-1.17,2.62-2.61,2.62s-2.62-1.17-2.62-2.62,1.18-2.62,2.62-2.62,2.61,1.18,2.61,2.62Z"/>
        <path class="cls-6" d="M2839.19,429.17c0,5.62-4.56,10.19-10.17,10.19s-10.19-4.57-10.19-10.19,4.57-10.17,10.19-10.17,10.17,4.56,10.17,10.17Z"/>
      </g>
      <g class="cls-4">
        <path class="cls-5" d="M1519.27,306.01c0,1.45-1.17,2.62-2.62,2.62s-2.61-1.17-2.61-2.62,1.17-2.62,2.61-2.62,2.62,1.18,2.62,2.62Z"/>
        <path class="cls-6" d="M1526.83,306.01c0,5.61-4.56,10.17-10.17,10.17s-10.18-4.56-10.18-10.17,4.56-10.18,10.18-10.18,10.17,4.55,10.17,10.18Z"/>
      </g>
      <g class="cls-4">
        <path class="cls-5" d="M1855.63,73.09c0,1.44-1.17,2.62-2.62,2.62s-2.62-1.18-2.62-2.62,1.17-2.62,2.62-2.62,2.62,1.18,2.62,2.62Z"/>
        <path class="cls-6" d="M1863.19,73.09c0,5.62-4.55,10.18-10.17,10.18s-10.18-4.56-10.18-10.18,4.56-10.17,10.18-10.17,10.17,4.55,10.17,10.17Z"/>
      </g>
      <g class="cls-4">
        <path class="cls-5" d="M3462.04,76.34c0,1.44-1.18,2.62-2.62,2.62s-2.62-1.18-2.62-2.62,1.17-2.62,2.62-2.62,2.62,1.17,2.62,2.62Z"/>
        <path class="cls-6" d="M3469.58,76.34c0,5.62-4.55,10.18-10.17,10.18s-10.17-4.56-10.17-10.18,4.55-10.18,10.17-10.18,10.17,4.55,10.17,10.18Z"/>
      </g>
      <g class="cls-4">
        <path class="cls-5" d="M1299.57,134.2c0,1.43-1.17,2.62-2.62,2.62s-2.61-1.18-2.61-2.62,1.17-2.63,2.61-2.63,2.62,1.18,2.62,2.63Z"/>
        <path class="cls-6" d="M1307.12,134.2c0,5.61-4.56,10.16-10.18,10.16s-10.17-4.55-10.17-10.16,4.55-10.18,10.17-10.18,10.18,4.55,10.18,10.18Z"/>
      </g>
      <g class="cls-2">
        <path class="cls-5" d="M2033.02,119.2c0,2.58-2.08,4.66-4.66,4.66s-4.65-2.09-4.65-4.66,2.09-4.67,4.65-4.67,4.66,2.09,4.66,4.67Z"/>
        <path class="cls-6" d="M2046.46,119.2c0,10-8.1,18.1-18.1,18.1s-18.1-8.11-18.1-18.1,8.11-18.11,18.1-18.11,18.1,8.11,18.1,18.11Z"/>
      </g>
      <g class="cls-2">
        <path class="cls-5" d="M2459.21,60.11c0,2.58-2.1,4.66-4.66,4.66s-4.68-2.08-4.68-4.66,2.1-4.66,4.68-4.66,4.66,2.08,4.66,4.66Z"/>
        <path class="cls-6" d="M2472.64,60.11c0,10-8.1,18.11-18.09,18.11s-18.11-8.11-18.11-18.11,8.1-18.1,18.11-18.1,18.09,8.09,18.09,18.1Z"/>
      </g>
      <g class="cls-2">
        <path class="cls-5" d="M2495.4,457.45c0,2.58-2.08,4.67-4.64,4.67s-4.67-2.1-4.67-4.67,2.09-4.67,4.67-4.67,4.64,2.11,4.64,4.67Z"/>
        <path class="cls-6" d="M2508.85,457.45c0,9.99-8.1,18.11-18.09,18.11s-18.11-8.12-18.11-18.11,8.1-18.09,18.11-18.09,18.09,8.09,18.09,18.09Z"/>
      </g>
      <g class="cls-2">
        <path class="cls-5" d="M2996.99,46.67c0,2.56-2.07,4.65-4.65,4.65s-4.66-2.08-4.66-4.65,2.08-4.66,4.66-4.66,4.65,2.08,4.65,4.66Z"/>
        <path class="cls-6" d="M3010.45,46.67c0,10-8.12,18.09-18.11,18.09s-18.1-8.1-18.1-18.09,8.1-18.11,18.1-18.11,18.11,8.09,18.11,18.11Z"/>
      </g>
      <g class="cls-2">
        <path class="cls-5" d="M1296.94,336.12c0,2.57-2.08,4.67-4.65,4.67s-4.66-2.09-4.66-4.67,2.08-4.67,4.66-4.67,4.65,2.1,4.65,4.67Z"/>
        <path class="cls-6" d="M1310.39,336.12c0,9.99-8.11,18.1-18.1,18.1s-18.11-8.11-18.11-18.1,8.11-18.11,18.11-18.11,18.1,8.1,18.1,18.11Z"/>
      </g>
      <g class="cls-2">
        <path class="cls-5" d="M598.44,64.76c0,2.58-2.09,4.67-4.66,4.67s-4.66-2.09-4.66-4.67,2.09-4.66,4.66-4.66,4.66,2.09,4.66,4.66Z"/>
        <path class="cls-6" d="M611.88,64.76c0,10-8.1,18.1-18.1,18.1s-18.1-8.1-18.1-18.1,8.11-18.11,18.1-18.11,18.1,8.11,18.1,18.11Z"/>
      </g>
      <g class="cls-2">
        <path class="cls-5" d="M22.77,292.57c0,2.57-2.09,4.65-4.66,4.65s-4.66-2.08-4.66-4.65,2.09-4.66,4.66-4.66,4.66,2.07,4.66,4.66Z"/>
        <path class="cls-6" d="M36.2,292.57c0,10-8.1,18.1-18.09,18.1S0,302.57,0,292.57s8.11-18.1,18.1-18.1,18.09,8.1,18.09,18.1Z"/>
      </g>
      <g class="cls-3">
        <path class="cls-5" d="M758.46,539.19c0,2.57-2.09,4.67-4.67,4.67s-4.66-2.1-4.66-4.67,2.1-4.66,4.66-4.66,4.67,2.09,4.67,4.66Z"/>
        <path class="cls-6" d="M771.91,539.19c0,10-8.11,18.1-18.11,18.1s-18.1-8.1-18.1-18.1,8.1-18.1,18.1-18.1,18.11,8.09,18.11,18.1Z"/>
      </g>
      <g class="cls-3">
        <path class="cls-5" d="M367.8,364.98c0,2.57-2.09,4.65-4.67,4.65s-4.65-2.08-4.65-4.65,2.08-4.67,4.65-4.67,4.67,2.08,4.67,4.67Z"/>
        <path class="cls-6" d="M381.24,364.98c0,9.99-8.1,18.1-18.1,18.1s-18.1-8.11-18.1-18.1,8.1-18.11,18.1-18.11,18.1,8.11,18.1,18.11Z"/>
      </g>
      <g class="cls-3">
        <path class="cls-5" d="M2367.88,150.74c0,2.57-2.09,4.66-4.66,4.66s-4.66-2.09-4.66-4.66,2.09-4.66,4.66-4.66,4.66,2.09,4.66,4.66Z"/>
        <path class="cls-6" d="M2381.32,150.74c0,10-8.1,18.1-18.09,18.1s-18.11-8.11-18.11-18.1,8.11-18.11,18.11-18.11,18.09,8.11,18.09,18.11Z"/>
      </g>
    </g>
  </g>
</svg>