<?xml version="1.0" encoding="UTF-8"?>
<svg id="Layer_2" data-name="Layer 2" xmlns="http://www.w3.org/2000/svg" xmlns:xlink="http://www.w3.org/1999/xlink" viewBox="0 0 5000 835.96">
  <defs>
    <style>
      .cls-1 {
        fill: url(#linear-gradient);
      }

      .cls-1, .cls-2, .cls-3 {
        stroke-width: 0px;
      }

      .cls-2 {
        fill: url(#linear-gradient-2);
      }

      .cls-3 {
        fill: url(#linear-gradient-3);
      }
    </style>
    <linearGradient id="linear-gradient" x1="3199.89" y1="460.58" x2="3199.89" y2="172.34" gradientUnits="userSpaceOnUse">
      <stop offset="0" stop-color="#545b8a"/>
      <stop offset="1" stop-color="#39386d"/>
    </linearGradient>
    <linearGradient id="linear-gradient-2" x1="1760.59" y1="76.26" x2="1760.59" y2="519.9" gradientUnits="userSpaceOnUse">
      <stop offset=".03" stop-color="#1f224a"/>
      <stop offset="1" stop-color="#494c7a"/>
    </linearGradient>
    <linearGradient id="linear-gradient-3" x1="3901.93" y1="729.61" x2="3901.93" y2="434.89" gradientUnits="userSpaceOnUse">
      <stop offset="0" stop-color="#3a3a6d"/>
      <stop offset="1" stop-color="#23244b"/>
    </linearGradient>
  </defs>
  <g id="Vrstva_1" data-name="Vrstva 1">
    <g>
      <path class="cls-1" d="M1915.74,119.12c29.89,0,230.57-51.24,345.86,0,115.29,51.24,307.43,99.98,373.61,94.82,66.18-5.16,283.94-9.43,326.64-17.97,42.7-8.54,196.41-17.08,269-17.08s230.57-12.81,290.35,4.27c59.78,17.08,170.79,53.3,213.49,60.81,42.7,7.51,286.08-40.17,412.04.75,125.96,40.92,262.59,86.94,305.29,89.55,42.7,2.61,42.7,207.56,0,211.83-42.7,4.27-1222.24,137.19-1252.12,124.38-29.89-12.81-626.6-158.54-643.68-158.54S1915.74,119.12,1915.74,119.12Z"/>
      <path class="cls-2" d="M0,139.73s34.88-33.89,54.1-36.97c19.21-3.08,44.83-29.39,55.51-27.02,10.67,2.37,23.48-13.04,34.16-22.28,10.67-9.24,19.21-15.41,25.62-21.56,6.4-6.16,4.27-9.24,19.21-18.49,14.94-9.24,17.08,12.32,25.62,0,8.54-12.32,10.67-1.67,19.21-2.38,8.54-.7-6.4-21.91,14.94-3.61,21.35,18.31,32.02,18.31,40.56,18.31h27.75c12.81,0-4.27,0,12.81,0s40.56,3.08,44.83,12.32q4.27,9.24,14.94,15.41c10.67,6.16,23.48,16.4,23.48,16.4,0,0,8.54-2.08,25.62,0,17.08,2.09,57.64,3.5,74.72,5.88,17.08,2.37,38.43,0,38.43,0l25.62,27.02,17.08,12.32s19.21,6.16,25.62,6.16,23.48,21.57,42.7,18.49c19.21-3.08,44.83.3,44.83.3,0,0,14.94,15.1,23.48,18.18,8.54,3.08,23.48,6.16,40.56,18.48,17.08,12.32,32.02,15.4,40.56,21.57,8.54,6.16,25.62-12.32,32.02,0,6.4,12.32,17.08,12.32,27.75,15.4,10.67,3.08,87.53,18.49,102.48,0,14.94-18.48,25.62-30.81,32.02-36.97,6.4-6.16,12.81-6.16,25.62-15.4,12.81-9.24,19.21-3.08,27.75-9.24,8.54-6.16,19.21-3.08,25.62-12.32,6.4-9.24,14.94-22.95,19.21-28.42,4.27-5.47,14.94-23.16,14.94-23.16,0,0,2.13-16.2,14.94-25.44,12.81-9.24,19.21-18.49,25.62-15.4,6.4,3.08,4.27,19.9,14.94,28.44,10.67,8.53,21.35,35.57,21.35,35.57,0,0-4.27-.69,8.54,0,12.81.69,12.81-6.86,38.43,0,25.62,6.85,23.48,6.85,38.43,19.18,14.94,12.32,25.62,21.57,32.02,21.57s12.81,6.16,19.21,6.16h25.62c19.21,0,27.75,3.08,34.16,3.08s-6.4,12.32,6.4,0c12.81-12.32,19.21-27.73,25.62-36.97,6.4-9.24,38.43-60.2,44.83-48.58,6.41,11.61,57.64-25.36,57.64-25.36h12.81s10.67,0,19.21-6.16c8.54-6.16,23.48-18.48,23.48-18.48,14.94-3.08,29.89,3.08,29.89,3.08,0,0,17.08,9.24,23.48,15.4,6.4,6.16,89.67,12.33,89.67,12.33h12.81c6.4,0,14.94-9.24,27.75-9.24h29.89s-2.14-6.16,17.08,3.08c19.21,9.24,27.75,18.49,38.43,21.57,10.67,3.08,40.56,18.49,55.51,18.49s74.72,3.08,83.26,3.08,34.16-12.32,42.7-12.32,10.67-3.08,23.48,0c12.81,3.08,40.56,30.12,40.56,30.12h21.35s8.54-6.86,14.94,0c6.4,6.85,14.94,16.1,38.43,19.18,23.48,3.08,32.02,3.08,55.51,3.08s72.59,12.32,83.26,24.65c10.67,12.32-4.27,0,10.67,12.32,14.94,12.33,25.62,12.33,55.51,27.73,29.89,15.4,19.21,15.4,29.89,15.4s34.16,14.81,40.56,8.94c6.4-5.86,40.56,1.38,40.56,1.38,0,0-3.54-26.65,12.11,0,15.65,26.65,32.73,45.14,43.4,57.46,10.67,12.32-8.54-9.24,10.67,12.32,19.21,21.57,40.56,36.97,40.56,36.97l40.56,21.57s10.67,9.24,17.08,15.4c6.4,6.16,32.02,24.65,32.02,24.65h55.51s8.54,3.08,29.89,0c21.35-3.08,8.54-.34,42.7,1.37,34.16,1.71,55.51-32.52,68.32,0,12.81,32.52-25.62,1.71,64.05,63.33,89.67,61.62,128.09,129.41,140.9,114,12.81-15.41,17.08,9.24,34.16,0,17.08-9.25,46.97-10.97,59.78,2.22,12.81,13.18,34.16,0,34.16,0,0,0-25.62,19.35,0,25.51,25.62,6.16,59.78,36.97,72.59,43.13,12.81,6.16,55.51,24.65,72.59,49.29,17.08,24.65,162.25,135.56,162.25,135.56H0V139.73Z"/>
      <path class="cls-3" d="M5000,103.12l-31.34-37.11h-21.35c-17.08,0,12.81-6.18-17.08,0-29.89,6.19-59.78,17.18-59.78,17.18,0,0-25.62,4.81-42.7,0-17.08-4.81-51.24,0-51.24,0l-34.16,19.93s-17.08,43.29-29.89,49.48c-12.81,6.18-51.24,0-51.24,0,0,0-25.62-13.06-38.43,2.75-12.81,15.81-55.51,28.17-68.32,40.54l-12.81,12.37s-44.83,21.64-64.05,15.46l-19.21-6.18s-6.4-3.96-12.81,7.29c-6.4,11.26-17.08,20.53-17.08,20.53,0,0-4.27-12.37-10.67,0-6.4,12.37-10.67,15.46-17.08,18.55-6.4,3.09-19.21,0-19.21,0,0,0-6.41-12.71-14.95,1.38-8.54,14.09-14.94,20.27-21.35,23.36-6.41,3.09-8.54-9.28-14.94,0-6.4,9.27-6.4-8.26-17.08.51-10.67,8.76-27.75,2.29-27.75,2.29,0,0-10.67-1.86-17.08,2.31-6.41,4.17-17.08-4.17-29.89,0-12.81,4.17-27.75,1.21-27.75,1.21l-21.35,1.02-14.94,17.41h-14.94l-12.81,33.44h-38.43s-25.62,9.84-36.29,12.94-25.62-21.64-40.56,0c-14.94,21.65-4.27,18.56-14.94,21.65l-10.67,3.09-14.95,18.55s-12.81,18.44-19.21,16.95c-6.4-1.49-25.62.09-25.62.09h-27.75l-21.35,13.88h-21.35s-23.48,27.83-32.02,34.01c-8.54,6.18-89.67-47.98-89.67-47.98,0,0-6.4-1.6-12.81,0-6.4,1.6-8.54,16.96-12.81,0-4.27-16.95-17.08-29.32-17.08-29.32l-19.21-3.09-23.48-3.09-17.08-6.18-14.94-9.28h-29.89l-25.62,9.28-10.67,6.18s-6.4,3.09-12.81,9.27c-6.4,6.19-27.75,6.19-36.29,12.37-8.54,6.19-17.08,9.17-23.48,13.86-6.4,4.69-14.94,0-14.94,0l-19.21,26.34-14.94,6.18-36.29,3.09s-10.67-3.09-17.08,0c-6.4,3.09-14.94,12.86-14.94,12.86h-8.54s8.54-18.06-6.41,0c-14.94,18.06-40.56,11.84-57.64,36.59l-17.08,24.76s-6.63-27.5-19.21,0c-12.58,27.5-11.59,26.67-26.62,17.97-15.03-8.7-11.81.92-22.48,5.39-10.67,4.47-12.81-10.66-25.62,0-12.81,10.66-29.89.85-29.89.85,0,0-17.08,9.8-36.29,25.27-19.21,15.46-36.29,24.74-36.29,24.74,0,0-14.94-15.46-21.35,0-6.41,15.46-49.1,27.83-49.1,27.83,0,0-10.67-12.37-23.48,0-12.81,12.37-44.83,24.74-44.83,24.74v12.37s-12.81-21.64-14.94,0c-2.13,21.65-8.54,15.46-12.81,27.83-4.27,12.37,0-6.19-4.27,12.37l-4.27,18.55-68.32,58.75s12.81,0,0,9.28c-12.81,9.28-19.21,3.09-27.75,15.46-8.54,12.37-19.21,24.74-19.21,24.74h2196.14V103.12Z"/>
    </g>
  </g>
</svg>