<?xml version="1.0" encoding="UTF-8"?>
<svg id="Layer_2" data-name="Layer 2" xmlns="http://www.w3.org/2000/svg" xmlns:xlink="http://www.w3.org/1999/xlink" viewBox="0 0 5000 1409.13">
  <defs>
    <style>
      .cls-1 {
        fill: url(#linear-gradient);
      }

      .cls-1, .cls-2, .cls-3, .cls-4, .cls-5, .cls-6 {
        stroke-width: 0px;
      }

      .cls-2 {
        fill: url(#linear-gradient-6);
      }

      .cls-3 {
        fill: url(#linear-gradient-5);
      }

      .cls-4 {
        fill: url(#linear-gradient-2);
      }

      .cls-5 {
        fill: url(#linear-gradient-3);
      }

      .cls-6 {
        fill: url(#linear-gradient-4);
      }
    </style>
    <linearGradient id="linear-gradient" x1="2500" y1="51.92" x2="2500" y2="566.45" gradientUnits="userSpaceOnUse">
      <stop offset="0" stop-color="#6a4f7c"/>
      <stop offset=".95" stop-color="#73669b"/>
    </linearGradient>
    <linearGradient id="linear-gradient-2" x1="1474.35" y1="336.44" x2="1474.35" y2="20.36" gradientUnits="userSpaceOnUse">
      <stop offset=".28" stop-color="#927ca1"/>
      <stop offset=".75" stop-color="#8374a1"/>
    </linearGradient>
    <linearGradient id="linear-gradient-3" x1="2065.65" y1="494.58" x2="2065.65" y2="282.89" gradientUnits="userSpaceOnUse">
      <stop offset=".28" stop-color="#8374a1"/>
      <stop offset=".75" stop-color="#8374a1"/>
    </linearGradient>
    <linearGradient id="linear-gradient-4" x1="3544.66" y1="626.98" x2="3544.66" y2="10.05" xlink:href="#linear-gradient-2"/>
    <linearGradient id="linear-gradient-5" x1="4693.27" y1="511.39" x2="4693.27" y2="-184.61" xlink:href="#linear-gradient-3"/>
    <linearGradient id="linear-gradient-6" x1="288.22" y1="534.17" x2="288.22" y2="5.42" xlink:href="#linear-gradient-2"/>
  </defs>
  <g id="Vrstva_1" data-name="Vrstva 1">
    <g>
      <path class="cls-1" d="M0,5.42l101.06,49.1s34.16,19.21,40.56,25.62c6.4,6.4,21.35,19.21,32.02,25.62,10.67,6.4,29.89,10.67,51.24,25.62,21.35,14.94,53.37,49.1,81.13,74.72,27.75,25.62,59.78,49.1,78.99,59.78,19.21,10.67,85.4,64.05,113.15,85.4,27.75,21.35,55.51,53.37,72.59,57.64,17.08,4.27,85.4,68.32,100.34,72.59,14.94,4.27,72.59-34.58,87.53-56.78,14.94-22.21,70.45-58.5,89.67-77.72,19.21-19.21,66.18-61.91,78.99-81.13,12.81-19.21,40.56-64.05,59.78-78.99,19.21-14.94,96.07-57.64,111.02-89.67,0,0,59.78-93.94,83.26-76.86,23.48,17.08,64.05,40.56,85.4,49.1,21.35,8.54,57.64,32.02,64.05,40.56,6.4,8.54,44.83,51.24,44.83,51.24,0,0,23.48,27.75,46.97,38.43,23.48,10.67,82.15,73.59,98.16,86.39,16.01,12.81,83.26,28.82,83.26,28.82,0,0,92.86-25.62,102.47-25.62s15.4-9.6,54.13-6.4c38.73,3.2,77.16,16.01,96.37,22.41,19.21,6.4,44.83,16.01,80.05,12.81,35.22-3.2,76.85-3.2,96.07-3.2s73.65-16.01,121.68-3.2c48.03,12.81,201.74,60.84,233.76,73.65,32.02,12.81,185.73,16.01,208.15,6.4,22.41-9.61,19.21-25.62,51.23-51.24,32.02-25.62,73.65-54.44,105.67-70.45,32.02-16.01,85.44-59.37,105.16-85.73,19.72-26.35,83.77-87.2,106.18-112.81,22.41-25.62,57.64-90.62,89.66-66.12,0,0,124.76,67.98,163.31,120.56,38.56,52.58,70.45,48.04,83.26,64.04,12.81,16.01,60.84,31.33,73.65,50.89,12.81,19.56,41.63,57.98,60.84,83.6,19.21,25.62,81.41,60.84,85.54,70.45,4.13,9.61,10.53,33.89,52.16,29.75,41.63-4.14,112.08-23.35,124.89-26.55,12.81-3.2,57.64-9.6,86.46-3.2,28.82,6.4,83.25,27.49,112.08,29.75,28.82,2.27,76.85,5.47,134.49-26.55,57.64-32.02,89.66-48.03,134.49-54.44,44.83-6.41,224.16-9.61,252.97-12.81,28.82-3.2,60.84,3.2,83.26-6.4,22.41-9.6,112.07-3.2,144.1-19.21,32.02-16.01,54.44-28.82,89.66-41.63,35.22-12.81,264.25-73.65,264.25-73.65v1219.11H0V5.42Z"/>
      <path class="cls-4" d="M1719.33,270.15c-41.27-12.74-49.1-17.08-74.72-25.62-25.62-8.54-87.53-32.02-104.61-40.56-17.08-8.54-36.29-23.48-42.7-32.02-6.4-8.54-38.43-31.44-57.64-38.43-19.21-6.99-32.02-25.62-55.51-36.29-23.48-10.67-44.83-27.75-66.18-36.29-21.35-8.54-34.16-12.81-44.83-14.94-10.67-2.14-91.8-25.62-91.8-25.62,23.48,17.08,64.05,40.56,85.4,49.1,21.35,8.54,57.64,32.02,64.05,40.56,6.4,8.54,44.83,51.24,44.83,51.24,0,0,16.32,19.28,35.36,31.88h0s-39.63-12.67-43.9-20.14c-4.27-7.47-8.54-11.74-18.15-20.28-9.61-8.54-20.28-14.94-29.89-23.48-9.61-8.54-29.89-22.42-29.89-22.42,0,0,25.62,33.09,32.02,38.43,6.4,5.34,27.89,14.88,28.89,22.38,1,7.51,14.88,36.33,17.01,39.53,2.14,3.2,4.27,6.4,16.01,16.01,11.74,9.61,21.61,16.01,27.89,21.35,6.27,5.34,20.15,7.47,28.69,14.94,8.54,7.47,13.88,20.41,21.35,24.08,7.47,3.67,27.75,25.35,28.82,26.25,1.07.9,12.81,24.39,16.01,26.52,3.2,2.13-5.34-27.75-18.15-45.9-12.81-18.15-23.48-24.55-30.96-41.63-7.47-17.08-27.75-23.48-30.96-36.29-1.46-5.84-3.53-10.96-2.92-12.67,5.06,2.36,11.7,7.07,19.19,13.15h0c25.63,22.71,38.77,45,50.75,46.81h0c12.19,11.86,22.51,21.96,27.94,26.29,16.01,12.81,83.26,28.82,83.26,28.82,0,0,92.86-25.62,102.47-25.62s15.4-9.6,54.13-6.4c2.26.19,4.52.41,6.78.66-19.85-5.27-37.22-10.06-48.04-13.41Z"/>
      <path class="cls-5" d="M1814.69,317.35c5.69,11.86,9.96,16.35,17.08,19.09,7.12,2.74,15.66,5.59,27.04,9.86,11.39,4.27,23.02,8.54,27.88,12.81,4.86,4.27,26.2,18.5,29.05,22.77,2.85,4.27,4.27,19.75,12.81,21.26,8.54,1.51,25.62,14.32,42.7,28.55,17.08,14.23,52.38,43.99,52.38,43.99,0,0-32.45-66.93-48.11-72.54-15.66-5.61-29.89-22.17-35.58-23.85-5.69-1.68-8.54-3.1-11.39-11.64-2.85-8.54-5.7-19.92-7.12-24.19l-1.42-4.27s18.5-4.05,25.62-2.74c7.12,1.32,17.08,4.16,25.62,9.86,8.54,5.69,9.96,8.54,19.93,15.66,9.96,7.12,15.66,13.32,22.77,17.33,7.12,4.02,14.23,9.53,31.31,23.85,17.08,14.32,32.73,13.19,34.16,21.58,1.42,8.39,22.77,32.59,34.16,43.98,11.39,11.39,15.66,9.96,34.16,24.2.74.57,1.43,1.13,2.14,1.68-13.58-13.99-28.97-30.45-32.03-36.32-5.69-10.91-19.93-27.7-25.62-33.54-5.69-5.84-2.85-1.74-11.39-21.58-8.54-19.84-4.27-21.26-19.93-28.38-15.66-7.12-32.73-11.39-38.43-18.5-5.69-7.12-9.96-12.81-9.96-12.81,0,0,5.69-15.44,17.08-7.01,11.39,8.43,25.62,14.12,29.89,15.55,4.27,1.42,15.66,5.69,15.66,5.69,0,0,1.42-27.04,5.69-28.47s4.27-5.69,17.08-1.42c12.81,4.27,27.04,1.64,31.31,8.65,4.27,7.01,42.69,16.97,42.7,18.39,0,1.42,2.85,2.85,9.96,1.42,7.12-1.42,25.62-4.27,29.89-5.69s-2.85-8.54,18.5-1.42c21.35,7.12,35.58,15.65,54.08,18.5,18.5,2.85,12.2,7.53,38.43,5.69,26.23-1.84,47.9,5.51,47.9,5.51h0c-51.85-18.03-174.05-55.97-215.93-67.14-48.03-12.81-102.47,3.2-121.68,3.2s-60.84,0-96.07,3.2c-35.22,3.2-60.84-6.4-80.05-12.81-19.21-6.4-57.64-19.21-96.37-22.41,0,0,37.01,24.59,42.71,26.92,5.69,2.33,5.69-4.31,11.39,7.55Z"/>
      <path class="cls-6" d="M3217.91,125.98c-32.55-44.4-126.56-99.77-155.04-115.93,9.25,9.73,17.24,21.27,21.38,34.51,3.91,12.53,19.93,21.35,19.93,21.35,0,0,35.58,29.89,45.54,32.74,9.96,2.85,17.08,5.69,27.04,14.23,9.96,8.54,13.52,21.35,23.13,27.04,9.61,5.69,20.99,14.23,26.69,22.77,5.69,8.54,18.5,17.08,22.77,25.62,4.27,8.54,18.5,15.66,27.04,25.62,8.54,9.96,7.12,44.12,11.39,49.81,4.27,5.69,15.66,1.29,21.35,19.15,5.69,17.86,12.81,25.45,17.08,34.46,4.27,9.01-4.27,4.96,8.54,19.09s5.69,14.12,24.2,25.51c18.5,11.39,39.85,13.71,51.24,26.78,11.39,13.07,22.77,26.17,31.31,35.99,8.54,9.82,15.65,21.68,22.77,33.54,7.12,11.86,12.81,21.82,18.5,27.52,5.69,5.69,27.04,17.97,38.43,31.05,11.39,13.07,12.81,11.65,25.62,23.04,12.81,11.39,25.62,19.93,25.62,19.93,0-11.39-8.54-27.04-11.39-31.31-2.85-4.27-2.85-3.38-7.12-11.65-4.27-8.27-11.39-1.16-8.54-11.12,2.85-9.96-11.38-4.27,2.85-9.96,14.23-5.69,29.89-8.54,35.58-8.54h24.2c8.54,0,17.08-1.42,17.08-1.42,0,0,0-4.27,11.39-12.81,11.39-8.54,19.92-10.91,24.2-14.71,4.27-3.8,11.39-8.07,11.39-8.07,0,0,19.93-5.69,32.74-4.27,12.81,1.42,24.19-1.42,34.16,2.85,0,0,21.35,14.23,32.74,24.19,11.39,9.96,11.38,9.07,18.5,21.61,7.12,12.55,8.54,18.24,19.93,28.2,11.39,9.96,11.39,15.65,28.46,27.04,17.08,11.39,34.16,17.08,39.85,24.2,5.69,7.12,12.83,21.35,23.5,31.31,10.66,9.96,16.14,11.9,24.89,19.93,8.76,8.02,9.96-14.23,0-21.35-9.96-7.12-25.62-32.74-37-41.28-11.39-8.54-24.2-17.08-34.16-24.19-9.96-7.12-24.19-11.91-25.62-21.61-1.42-9.7-5.69-23.93-8.54-32.47-2.85-8.54-2.85-26.09-2.85-26.09,0,0-9.96-10.91-14.23-16.61-4.27-5.69-7.12-16.93-7.12-16.93,0,0-1.42-8.39,7.12,0,8.54,8.39,18.5,12.66,25.62,16.93,7.12,4.27,21.35,17.56,28.46,16.61,7.12-.95,17.08-14.71,29.89,0,12.81,14.7,27.04,20.4,29.89,28.94,2.85,8.54,11.2,19.4,15.57,29.63,4.36,10.23,1.51,11.65,10.05,21.61,8.54,9.96,17.08,14.23,32.74,24.19,15.65,9.96,49.81,28.47,49.81,28.47,0,0-46.97-42.7-65.47-56.93-18.5-14.23-18.5-26.66-17.08-34.68,1.42-8.02,1.42-12.29-2.85-20.83-4.27-8.54-5.69-6.64-15.66-20.4-9.96-13.76-22.75-16.61-23.47-19.45s-17.8-14.08-17.8-14.08c0,0-30.72-8.16-36.52-11.25-23.02-6.87-46.91-14.95-62.91-18.5-28.82-6.4-73.65,0-86.46,3.2-12.81,3.2-83.26,22.42-124.89,26.55-41.63,4.14-48.03-20.15-52.16-29.75-4.13-9.6-66.32-44.83-85.54-70.45-19.21-25.62-48.03-64.04-60.84-83.6-12.81-19.56-60.84-34.88-73.65-50.89-12.81-16.01-44.7-11.46-83.26-64.04Z"/>
      <path class="cls-3" d="M4832.02,543.42c-29.89-21.35-59.78-48.84-59.78-48.84,0,0-42.7-23.27-66.18-36.32-23.48-13.05-29.89-10.91-40.56-42.94-10.67-32.02-76.86-27.75-115.29-42.7-38.43-14.94-87.54-42.5-87.54-42.5,0,0,53.38-1.94,76.87,0,23.48,1.94,38.43,10.48,59.78,14.75,21.35,4.27,34.15,6.4,48.03,10.67,13.88,4.27,33.1,10.67,45.91,10.67s19.21-6.4,34.16,0c14.94,6.4,19.21,6.6,27.75,22.51,8.54,15.92,19.21,34.46,25.62,47.61,6.41,13.14,4.27,17.89,17.08,21.92,12.81,4.03,39.07,6.17,56.9,18.98,17.83,12.81,45.58,14.22,51.98,28.46,6.4,14.24,14.94,18.51,17.08,24.91,2.13,6.41-91.8,12.81-91.8,12.81Z"/>
      <path class="cls-2" d="M0,5.42v23.34c23.12,14.79,69.38,44.42,76.54,49.19,9.61,6.4,44.83,25.62,54.44,41.63,9.61,16.01,9.61,9.61,19.21,35.22,9.6,25.62,12.81,22.41,16.01,41.63,3.2,19.21-19.21,28.82,0,35.22,19.21,6.41,6.03,29.24,15.99,39.21,9.96,9.96,12.81,9.96,18.5,18.5,5.69,8.54,2.85,5.69,21.35,25.62,18.5,19.92,44.12,41.27,44.12,41.27,0,0-35.72-61.61-54.08-68.32-18.37-6.7-18.5-19.93-18.5-28.46s-1.42-5.69-1.42-17.08,1.42-12.81,1.42-17.08-4.27-17.08-4.27-17.08c0,0-5.69-8.54,8.54,0,14.23,8.54,37,35.58,38.43,39.85,1.42,4.27,5.69,5.69,9.96,17.08,4.27,11.39,21.35,19.92,19.92,24.19-1.42,4.27,27.04,29.89,29.89,37,2.85,7.12,7.12,11.39,12.81,22.77,5.69,11.39,15.66,19.92,18.5,28.46,2.85,8.54,0,14.06,15.66,25.53,15.66,11.47,30.85,9.21,46.97,32.82,16.12,23.61,28.46,29.89,34.16,37,5.69,7.12,15.66,21.61,15.66,21.61,0,0,14.31-11.86,0-21.61-14.31-9.75-48.39-65.64-54.09-69.83-5.69-4.18-38.43-29.8-41.27-34.07-2.85-4.27-11.39-4.27-18.5-17.08-7.12-12.81-44.12-59.91-51.24-69.09-7.12-9.18-15.66-9.19-17.08-20.57-1.42-11.39-2.85-25.62-4.27-31.31-1.42-5.69-7.12-12.81-12.81-22.77-5.69-9.96-11.39-29.83-11.39-29.83,0,0,7.12-7.17,15.66,8.49,8.54,15.66,22.77,32.73,25.62,37,2.85,4.27,19.93,21.35,22.77,25.62,2.85,4.27,14.23,12.81,19.93,22.77,5.69,9.96,11.39,8.54,17.08,25.62,5.69,17.08,11.39,25.84,15.66,38.54,4.27,12.7,7.12,16.97,12.81,19.82,5.69,2.85,22.77,5.69,34.16,17.08,11.39,11.39,12.81,9.96,22.77,21.35,9.96,11.39,30.56,35.58,30.56,35.58l36.36,36.58,25.6,27.72,68.32,39.59s-42.7-32.74-59.78-54.08c-17.08-21.35-15.66-25.62-31.31-37-15.66-11.38-22.77-7.12-31.31-27.04-8.54-19.92-22.77-55.51-29.89-62.62s-54.09-27.04-59.78-34.16c-5.69-7.12-12.81-17.08-17.08-28.46-4.27-11.39-7.12-21.35-7.12-21.35,0,0-9.96-11.39,38.43,19.93,48.39,31.31,75.43,55.51,85.4,64.05,9.96,8.54,15.66,9.96,21.35,14.23,5.69,4.27,19.56,14.77,41.27,21.09,8.59,2.5,19.12,7.13,28.89,11.94-16.22-11.9-36.79-33.58-57.35-49.4-27.75-21.35-93.94-74.72-113.15-85.4-19.21-10.67-51.24-34.16-78.99-59.78-27.75-25.62-59.78-59.78-81.13-74.72-21.35-14.94-40.56-19.21-51.24-25.62-10.67-6.4-25.62-19.21-32.02-25.62-6.4-6.4-40.56-25.62-40.56-25.62L0,5.42Z"/>
    </g>
  </g>
</svg>