<?xml version="1.0" encoding="UTF-8"?>
<svg id="Layer_2" data-name="Layer 2" xmlns="http://www.w3.org/2000/svg" xmlns:xlink="http://www.w3.org/1999/xlink" viewBox="0 0 5000 2118.67">
  <defs>
    <style>
      .cls-1 {
        fill: url(#linear-gradient);
      }

      .cls-1, .cls-2, .cls-3 {
        stroke-width: 0px;
      }

      .cls-2 {
        opacity: .14;
      }

      .cls-2, .cls-3 {
        fill: #fff;
      }

      .cls-3 {
        opacity: .1;
      }
    </style>
    <linearGradient id="linear-gradient" x1="2500" y1="649.67" x2="2500" y2="252.6" gradientUnits="userSpaceOnUse">
      <stop offset="0" stop-color="#c7a7c7"/>
      <stop offset="1" stop-color="#dcbbe2"/>
    </linearGradient>
  </defs>
  <g id="Vrstva_1" data-name="Vrstva 1">
    <g>
      <path class="cls-1" d="M139.49,834.05c54.08-16.35,89.67-2.64,102.48-13.72,12.81-11.08,46.97-40.62,85.4-66.46,38.43-25.85,123.82-92.31,149.44-103.39,25.62-11.08,98.21-55.38,123.82-44.31,25.62,11.08,64.05,40.62,89.67,48,25.62,7.38,72.59,7.38,102.48,18.46,29.89,11.08,68.32,33.23,102.48,48,34.16,14.77,93.94,29.54,136.63,51.69,42.7,22.15,42.7,55.38,128.09,59.08s204.95-40.62,217.76-55.38c12.81-14.77,55.51-59.08,81.13-81.23,25.62-22.15,46.97-29.54,85.4-51.69,38.43-22.15,46.97-25.85,68.32-55.38,21.35-29.54,46.97-55.38,72.59-77.54,25.62-22.15,51.24-48,85.4-92.31,34.16-44.31,81.13-70.16,93.94-55.38,12.81,14.77,128.09,99.69,157.98,110.77,29.89,11.08,93.94,22.16,128.09,48,34.16,25.85,64.05,55.38,98.21,70.15,34.16,14.77,64.05,21.67,93.94,31.14,29.89,9.47,59.78,20.07,85.4,0l25.62-20.06h0s34.16-36.93,68.32-22.16c34.16,14.77,111.02,59.08,145.17,66.46,34.16,7.38,136.63,56.86,153.71,64.25,17.08,7.38,85.4,54.94,128.09,69.71,42.7,14.77,89.67,48.43,136.63,45.84,46.97-2.59,170.79-98.57,170.79-98.57,0,0,17.08-11.08,76.86-40.62,59.78-29.54,98.21-37.4,128.09-64.86,29.89-27.45,29.89-38.53,64.05-79.14,34.16-40.62,183.6-147.69,217.76-125.54,34.16,22.15,98.21,70.16,115.29,77.54,17.08,7.38,68.32,11.07,76.86,25.85,8.54,14.77,12.81,22.15,29.89,48s115.28,99.69,128.09,110.77c12.81,11.08,46.97,25.84,59.78,40.62,12.81,14.77,8.54,40.61,81.13,40.61s149.44-25.84,192.14-40.61c42.7-14.77,76.86-25.85,93.94-33.23,17.08-7.38,81.13-14.77,123.83-14.77h115.29c12.81,0,0,11.08,34.16,0,34.16-11.08,81.13-29.54,106.75-33.23,25.62-3.69,99.66-16.86,99.66-16.86v1496.12H0V804.23s47.67,57.58,139.49,29.82Z"/>
      <path class="cls-3" d="M1587.22,307.41c-29.97-2.06-64.98-23.71-92.93-25.77-27.94-2.06-19.24-4.12-52.12-4.12s-45.18-11.77-30.57-17.72c14.62-5.96,68.77-3.67,93.69-6.41,24.92-2.76,58.88-9.73,42.12-11.74-16.76-2.01-36.78-4.76-58.58-7.51-21.79-2.75-36.4,1.83-60.47.46-24.07-1.38,49.42-5.23,42.12-11.09-7.31-5.86-21.92-8.98-47.28-8.79-25.36.18-36.1-5.39-69.19-8.56-33.1-3.17-55.01-9.58-82.09-11.41-27.07-1.83-119.83,3.55-156.58-6.31-36.74-9.86,46.41-26.35,87.99-23.26,41.58,3.09,112.22-5.15,87.54-17.52-24.68-12.37-82.7-19.47-123.31-17.98-40.61,1.49-60.91-3.67-82.19,6.64-21.27,10.31-29.98,17.52-63.82,20.61-33.84,3.09-57.05,1.03-88,3.09-30.94,2.06-54.14-14.43-144.07-13.4-76.62.88-75.17-14.76-54.01-20.16,49.81-6.63,127.39-21.39,147.86-22.43,26.21-1.33,24.93-.03,49.42,0,24.5.03,48.56-.49,57.59-.03,9.03.46,36.1-3.67,50.71-6.81,14.62-3.14,22.35-1.44,42.98-.29,20.63,1.15,36.96-1.61,59.74-.23,22.78,1.37,25.79-3.66,33.1-5.04,7.31-1.37,55.44-17.4,83.37-16.03,27.94,1.37,88.1-5.04,115.61-14.65,27.51-9.63-6.02-10.08-37.39-16.64-31.38-6.55-40.83-14.98-86.39-17.26-45.56-2.29-81.34,8.48-104.87,3.32-23.53-5.15-37.39-7.9-50.6-6.19-13.22,1.72-40.62-2.06-67.04-2.4-26.43-.35-37.39-1.38-50.61,2.75-13.21,4.12,9.03,6.18-15.79,8.93-24.82,2.75-25.79,2.75-55.44,3.78-29.66,1.03-39-.34-53.51,0-14.5.35-37.07.35-28.04,4.12,9.02,3.78,23.21,6.52,29.33,6.87,6.13.34,22.89,1.37,1.61,3.43-21.27,2.06-46.19,15.55-75.2,15.55h-82.19c-74.02,5.35-2.48,18.92-32.57,18.92-4.9,0-9.86.13-14.94.39-.13,0-138.35,5.48-235,27.12-96.69,21.63-136.34,9.27-170.19,9.27s-88.96-4-118.94,6.76C98.12,140.44,0,141.47,0,141.47v56.69l.21,129.86s81.47-21.64,147.22-20.61c65.75,1.03,124.74,1.26,172.12,6.81,47.38,5.55,70.59,2.69,116.03,0,45.45-2.69,50.29-3.93,113.13-12.07,62.85-8.14,56.15-12.26,103.5-17.42,47.35-5.16,81.19,17.75,177.88,29.49,96.7,11.74,87.99,23.08,158.58,13.8,70.59-9.27,119.9-5.15,149.88-6.18,29.97-1.03,162.45,27.82,221.43,19.58,58.99-8.24,87.03-11.34,162.45-13.4,75.42-2.06,94.76-18.55,64.78-20.61ZM664,148.94c-21.27,6.87-57.37-2.75-80.58.68-23.21,3.44-84.45,11.68-67.69,16.49,16.76,4.81,28.36,2.06,63.82,5.5,35.46,3.43,59.31,2.06,48.99,3.43-10.31,1.38-30.94,6.87-76.07,10.31-45.12,3.44-77.36,13.62-110.24,19.87-32.88,6.25-62.53-7.5-90.25-10.25-27.72-2.75-19.98-4.12-58.02,1.38-38.03,5.5-125.06-5.71-86.38-14.19,38.67-8.49,45.12-1.83,105.08,0,13.71.41,7.09-11.24,58.02-11.24s83.81-10.3,122.49-15.11c38.68-4.81,36.11-13.74,96.06-16.49,59.95-2.75,96.06,2.74,74.78,9.62Z"/>
      <path class="cls-3" d="M1063.12,333.5c-18.73-3.15-4.1-9.17,37.53-15.92,41.62-6.75,38.6-22.05,78.93-23.37,40.33-1.32,71.91-.35,104.14.66,32.22,1.01,23.23-13.91,66.63-17.14,43.39-3.22,85.99-3.06,121.39-.85,35.39,2.22,37.17,5.75,97.72-5.51,60.55-11.27,58.36-19.64,86.46-13.35,28.11,6.29,52.95,27.34,95.55,27.28,42.6-.06,106.77-5.85,79.84,4.2-26.93,10.04-19.15,23.4-53.86,20.26-34.71-3.14-61.01-6.71-95.94-5.05-34.93,1.67,16.75,14.7,54.71,17.39,37.95,2.69,49.45,5.35,76.71,1.97,27.27-3.38,47.8-.82,33.2,7.99-14.61,8.81-26.77,20.55-54.1,25.31-27.33,4.76-60.68.25-96.9,1.79-36.21,1.54-67.92,3.31-91.45,9.63-23.53,6.33-60.52,10.58-95.64,2.54-35.13-8.04-66.42-15.37-92.22-15.61-25.81-.23-70.64,20.11-104.28,21.79-33.64,1.66-53.44-2.82-86.92-4.58-33.49-1.76-.42-4.95,6.77-6.92,7.19-1.98,7.05-12.99-5.82-13.66-12.88-.68-15.45-.81-44.46-1.65-29.01-.84-56.85,1.14-70.37.43-13.52-.71,62.45-10.47,108.84-8.72,46.39,1.76,11.93-6.74-16.22-12.11-28.15-5.36-56.19.73-77.56,2.36-21.38,1.63-44.71,3.84-62.64.84Z"/>
      <path class="cls-3" d="M4193,370.18c23.63,3.39,5.28,9.22-47.05,15.44-52.32,6.23-48.33,21.57-99.08,22.37-50.76.8-90.54-.57-131.13-2-40.59-1.42-29.07,13.63-83.67,16.3-54.6,2.67-108.23,1.96-152.83-.71-44.59-2.67-46.87-6.23-122.97,4.26-76.09,10.5-73.22,18.9-108.7,12.25-35.48-6.66-67.02-28.03-120.66-28.52-53.64-.48-134.36,4.49-100.58-5.22,33.78-9.7,23.82-23.17,67.56-19.58,43.74,3.59,76.9,7.5,120.87,6.28,43.96-1.23-21.27-14.93-69.1-18.1-47.82-3.17-62.33-5.99-96.62-2.95-34.29,3.03-60.17.21-41.9-8.42,18.28-8.63,33.45-20.22,67.8-24.63,34.35-4.41,76.4.53,121.99-.55,45.58-1.07,85.48-2.44,115.02-8.47,29.55-6.04,76.06-9.81,120.39-1.32,44.34,8.5,83.82,16.23,116.32,16.8s88.69-19.22,131.03-20.47c42.33-1.23,67.32,3.5,109.5,5.69,42.18,2.19.59,4.95-8.44,6.84-9.03,1.88-8.71,12.91,7.5,13.75,16.22.84,19.47,1.01,56,2.22,36.53,1.21,71.57-.41,88.6.47,17.03.89-78.5,9.68-136.93,7.34-58.44-2.35-14.94,6.59,20.58,12.32,35.51,5.73,70.73-.02,97.63-1.37,26.9-1.36,56.25-3.27,78.87-.04Z"/>
      <path class="cls-3" d="M301.06,169.55c-11.63,4.14-22.56,8.94-59.95,0-37.39-8.93-48.35-11.68-74.78-13.74-26.43-2.06-41.9-4.81-58.67-5.5-16.76-.69-45.77,10.01-54.79,11.53-9.03,1.52-29.66-.54-31.59,3.59-1.93,4.12,16.76,10.99,36.74,10.99s41.26-3.44,73.5,0c32.23,3.43,21.28,8.93.64,14.43-20.63,5.5-34.17,6.87-65.75,8.93-31.59,2.06-45.13-3.94-66.4-1.62v-93.2s53.5-4.13,81.23,0c27.72,4.12,62.53-6.19,88.97-8.25,26.43-2.06,14.18-14.43,3.22-15.79-10.96-1.38-52.22-6.88-22.89-14.44,29.33-7.56,75.75-4.12,105.4,0,29.66,4.12,23.21,8.25,57.37,4.81,34.17-3.44,83.16-4.12,70.91,2.06-12.25,6.19-39.97,7.57-58.66,8.25-18.7.68-19.99,3.44-50.94,9.62-30.94,6.19-30.29,16.49-23.85,17.18,6.44.68,24.5,6.87,50.93,8.25,26.43,1.37,15.39,3.65,60.6,1.37,45.21-2.27,105.73-13.06,91.54-5.5-14.18,7.56-4.51,10.4-36.1,18.6-31.59,8.21-54.79,3.39-68.34,13.7-13.54,10.31,52.22,3.44,88.96-6.87,36.75-10.3,74.14-15.11,67.05-10.3-7.09,4.81-14.18,9.62-34.81,17.86-20.63,8.25-19.34,16.49-45.12,24.74-25.79,8.25-34.17,8.25-62.53,8.25s-42.55-15.8-61.89-8.94Z"/>
      <path class="cls-3" d="M897.61,48.25c-55.46,4.35-58.12-6.65-97.04-2.23-38.92,4.41-70.52.15-46.85-3.14,23.67-3.29,51.7-4.37,71.31-9.53,19.61-5.16,55.87-9.84,75.32-11.17,19.44-1.32-19.4-.95-38.82-.89-19.42.06-15.91-3.91,9.3-7.88,25.21-3.97,59.04-1.67,82.71-4.67,23.67-2.99,39.37-7.94,62.62-8.67,23.24-.73,156.33,4.43,213.22,18.64,56.88,14.21,214.71,4.19,287.95-3.23,73.25-7.42,169.23-9.76,220.57-6.68,51.34,3.08,101.52,6.51,132.33,7.98,30.81,1.46,123.37-.95,101.6,2.34-21.77,3.28-42.44,8.88-87.04,11.65-44.6,2.77-162.23,2.33-188.51,2.49s-99.45,3.78-158.98,10.76c-59.53,6.97,42.27-.55,106.21.17,63.95.72,156.28,9.67,116.3,10.27-39.99.6-114.31,4.19-150.94,8.66-36.64,4.46-78.06,19.45-128.2,13.74-50.14-5.71-101.51-6.89-116.36-7.23-14.84-.34-3.65,11.3,8.85,13.86,12.52,2.56,14.5,17.02-45.86,8.81-60.37-8.22-104.72-17.59-134.39-19.03-29.67-1.44-57.19,3.99-83.54,7.94-26.35,3.95-72.03,3.65-114.19-1.11-42.16-4.76-.34-39.46-97.58-31.84Z"/>
      <path class="cls-3" d="M1967.04,413.49c-3.61,4.18-14.74,11.98-49.38,17.24-34.64,5.27-56.01,3.83-58.96,7.18-2.95,3.35-36.11,5.74-35.38,18.2.74,12.45,64.13,25.38,103.18,25.38s67.07-5.75,74.43,0c7.37,5.74,26.53,10.53,49.38,12.93,22.85,2.39,28,4.31,58.96,3.35,30.95-.96,63.38-1.44,74.44-2.4,11.05-.95,25.06-3.83,39.06-4.31,14.01-.48,14.74.96,40.54.96s39.8.95,61.17,0c21.38-.96,19.16,4.79,42-2.4,22.86-7.18,16.96-9.57,53.81-11.97,36.85-2.39,92.86-3.35,79.6-10.53-13.27-7.18-41.27-7.89-55.27-11.36-14.01-3.48,2.21-8.27,14.73-8.27s69.28-4.78-18.42-10.53c-87.71-5.75-65.6-14.84-48.65-17.24,16.95-2.4,51.59-11.97,36.11-14.85-15.48-2.87-33.9-6.22-49.38-7.18-15.48-.96-18.43,1.92-35.38,2.87-16.95.96-29.43,1.44-42.35,1.91-12.92.48-27.67.48-48.3-2.87-20.64-3.36-54.54-3.26-69.28-2.11-14.75,1.16-90.89-4.11-21.13-18.72h-233.14s25.06,12.69,44.95,14.61c19.9,1.91,39.07,2.87,39.8,5.75.74,2.87-8.85,9.58-24.32,9.58s-18.6-.13-22.85,4.79Z"/>
      <path class="cls-3" d="M2619.76,191.82c-5.76,4.12-23.51,11.83-78.77,17.03-55.26,5.2-89.35,3.78-94.05,7.09-4.7,3.31-57.61,5.67-56.43,17.97,1.18,12.3,102.29,25.07,164.6,25.07s106.98-5.67,118.74,0c11.76,5.68,42.33,10.41,78.77,12.77,36.45,2.36,44.67,4.26,94.05,3.31,49.38-.95,101.1-1.42,118.75-2.37,17.63-.94,39.97-3.78,62.3-4.25,22.34-.48,23.52.94,64.67.94s63.48.95,97.58,0c34.1-.94,30.56,4.73,67-2.37,36.46-7.09,27.05-9.46,85.83-11.83,58.79-2.36,148.13-3.31,126.97-10.4-21.16-7.09-65.84-7.79-88.17-11.23-22.34-3.44,3.53-8.17,23.5-8.17s110.52-4.73-29.38-10.41c-139.91-5.68-104.65-14.66-77.6-17.03,27.03-2.36,82.29-11.83,57.6-14.66-24.69-2.84-54.08-6.15-78.77-7.09-24.69-.95-29.39,1.89-56.43,2.83-27.04.95-46.96,1.42-67.56,1.89-20.61.48-44.13.48-77.04-2.83-32.92-3.32-87.01-3.23-110.52-2.09-23.53,1.14-144.98-4.06-33.7-18.49h-371.9s39.97,12.53,71.71,14.43c31.75,1.89,62.32,2.84,63.49,5.68,1.18,2.83-14.12,9.46-38.8,9.46s-29.67-.12-36.45,4.73Z"/>
      <path class="cls-2" d="M1741.89,202.36c-24.7-4.79-25.79-8.9-47.06-8.9s-25.15-1.94-46.42,0c-21.28,1.93-36.11-.18-47.71-.86-11.6-.69,9.03-9.59,27.72-9.59s12.25-.39,43.84-4.26c31.59-3.88,58.66-5.43,78.01-5.43s24.49,1.16,47.71,2.71c23.2,1.55,43.19,1.94,59.3,0,16.12-1.93,39.97-1.55,55.44-2.71,15.48-1.16,25.15-1.55,36.11,0,10.96,1.55,1.28,5.43,23.21,6.97,21.91,1.55,29.01,1.94,37.39,1.94s10.32-.39,25.14,1.55c14.83,1.93,7.74.91,25.14,3.56,17.4,2.64,39.32,3.41,54.15,3.41s37.39-1.54,21.92,1.56c-15.47,3.09-19.34,10.06-50.93,10.06s-45.13.77-68.98,3.49c-23.85,2.71-29.01,2.32-54.15,5.42-25.14,3.1-7.73,7.75-51.57,3.1-43.84-4.65-48.35-4.65-54.15-5.42-5.8-.78-9.67-1.16-37.39-2.71-27.71-1.55-40.61,6.58-69.62,6.97-29.01.39-53.5-.38-61.25-.77-7.73-.39-27.72-7.36,1.94-7.36s45.13,2.71,54.79,1.55c9.68-1.17,17.41-.39-2.58-4.26Z"/>
    </g>
  </g>
</svg>